<?xml version="1.0" encoding="UTF-8"?><svg id="a" xmlns="http://www.w3.org/2000/svg" viewBox="0 0 437.8 437.8"><defs><style>.b{stroke:#c40000;stroke-miterlimit:10;stroke-width:12px;}.c{fill:#30ab51;}.c,.d,.e,.f,.g{fill-rule:evenodd;}.d{fill:#4385fd;}.e{fill:#c6231a;}.f{fill:#feba00;}.g{fill:#ee4131;}</style></defs><path class="b" d="M91.61,6h255.33c46.56,0,84.86,38.3,84.86,85.61v255.33c0,46.56-38.3,84.86-84.86,84.86H91.61c-47.31,0-85.61-38.3-85.61-84.86V91.61C6,44.3,44.3,6,91.61,6h0Z"/><path class="d" d="M60.07,157.7v158.46c0,11.26,9.76,21.03,21.78,21.03h50.32v-123.91l-72.09-55.57h-.01Z"/><path class="c" d="M306.38,213.27v123.91h50.32c12.02,0,21.03-9.76,21.03-21.03V157.7l-71.34,55.57h-.01Z"/><path class="f" d="M377.73,157.7v-16.52c0-12.77,.75-20.28-6.76-28.54-12.02-13.52-32.29-15.77-47.31-4.51-6.01,4.51-12.02,8.26-17.27,12.77v92.37l71.34-55.57h0Z"/><path class="e" d="M60.07,141.17v16.52l72.09,55.57V120.89c-6.01-4.51-11.26-8.26-17.27-12.77-15.02-11.26-36.05-9.01-48.06,4.51-7.51,8.26-6.76,15.77-6.76,28.54h0Z"/><path class="g" d="M132.16,213.27l87.11,65.33,87.11-65.33V120.9c-29.29,21.78-58.58,44.31-87.11,66.09-29.29-21.78-57.82-44.31-87.11-66.09v92.37h0Z"/></svg>