<?xml version="1.0" encoding="UTF-8"?><svg id="a" xmlns="http://www.w3.org/2000/svg" viewBox="0 0 420 420"><defs>


<style>.c{  fill:red; stroke:white; stroke-width:1 }</style></defs>



<g id="b"><g>
<path class="c" d="M413.1,216.78c-.24,107.15-87.25,194.13-194.14,194.08-107.22-.05-194.11-87.58-193.87-195.31,.24-107.2,87.79-194.07,195.85-193.13,108.83,.95,192.89,90.43,192.16,194.36ZM219.33,37.89c-94.16-1.01-178.33,75.23-179.05,177.3-.71,100.76,79.68,177.1,172.81,180.11,100.58,3.25,184.25-76.94,184.93-178.12,.66-98.65-79.61-178.99-178.69-179.29Z"/>
<path class="c" d="M210.25,156.4c-14.7,1.78-28.68,3.48-42.94,5.21-.2,1.08-.34,2.19-.63,3.26-1.39,5.11-6.06,7.04-10.51,4-5.34-3.65-8.17-9-9.12-15.39-1.57-10.5-3.25-20.99-4.82-31.49-.71-4.78-3.16-8.13-7.24-10.77-1.6-1.03-2.29-3.47-3.39-5.26,2.03-.65,4.04-1.76,6.09-1.83,2.43-.08,5.14,.22,7.32,1.23,14.92,6.92,30.16,2.13,45.26,1.4,6.45-.31,12.87-1.23,19.92-1.94,0-9.74,.2-19.35-.23-28.92-.06-1.34-3.14-2.58-4.85-3.82-1.59-1.16-3.22-2.26-4.84-3.38,1.3-1.36,2.34-3.23,3.93-4.01,8.28-4.08,18.38-2.21,24.64,4.54,1.09,1.17,2.26,3.79,1.71,4.71-3.79,6.22-2.09,13-2.49,19.53-.18,2.98-.03,5.98-.03,9.87,6.25-.46,12.61-.83,18.96-1.41,8.78-.81,17.55-1.68,26.3-2.73,2.58-.31,5.28-.92,7.55-2.13,4.12-2.19,7.97-2.17,11.83,.19,3.97,2.43,8.05,4.74,11.68,7.61,3.73,2.95,3.12,4.86-.62,7.81-2.32,1.83-4.56,4.32-5.68,7-4.34,10.39-8.19,20.98-12.28,31.48-1.59,4.09-4.86,4.78-8.92,4.69-15.63-.38-31.26-.46-46.89-.75-3.24-.06-3.29,1.83-3.29,4.21,.05,12.49,.44,25.01-.15,37.48-.3,6.35-2.05,12.72-3.87,18.87-.61,2.04-3.6,4.88-5.26,4.72-1.93-.18-4.62-2.99-5.15-5.12-1.24-4.93-1.81-10.12-1.89-15.22-.23-14.13-.08-28.28-.08-43.65Zm17.1-42.46c0,9.61-.11,18.4,.15,27.18,.03,1,2.21,2.84,3.31,2.78,13.89-.76,27.76-1.8,41.87-2.79,2.43-10.15,4.84-20.2,7.54-31.48-18.15,1.48-35.13,2.86-52.88,4.31Zm-69.46,6.44c1.63,9.06,3.01,17.89,5.01,26.58,.32,1.37,3.5,3.11,5.22,2.97,13.88-1.12,27.73-2.64,41.69-4.05v-30.07c-17.48,1.54-34.5,3.04-51.92,4.57Z"/>
<path class="c" d="M276.17,292.01c0-17.47-.18-34.94,.11-52.41,.09-5.24-1.42-8.86-5.88-11.66-1.46-.92-1.99-3.29-2.95-5,1.79-.59,3.76-2,5.33-1.64,6.76,1.58,14.38,.17,19.96,6.11,2.29,2.44,3.03,4.1,1.32,7.27-1.42,2.62-2.29,5.88-2.3,8.87-.16,35.1-.1,70.21-.11,105.31,0,1.66,.05,3.33-.08,4.99-.26,3.28-.88,6.51-4.87,7.09-3.94,.57-7.05-1.3-8.34-4.88-1.22-3.36-2.03-7.07-2.07-10.63-.2-17.8-.09-35.61-.09-53.41h-.02Z"/>
<path class="c" d="M159.8,231.49c6.12,2.56,12.24,4.89,18.15,7.68,2.91,1.38,3.25,3.8,2.16,7.15-1.31,4-1.91,8.4-1.91,12.62,0,15.49-.28,30.92-4.11,46.07-4.83,19.09-18.33,31.6-32.9,43.19-1.32,1.05-4.2,.13-6.35,.12,.57-2.03,.54-4.58,1.8-6,10.22-11.58,19.67-23.75,22.79-39.21,2.06-10.2,2.76-20.72,3.43-31.13,.5-7.79-.16-15.64,0-23.46,.09-4.19-1.38-6.83-5.22-8.69-1.59-.77-2.47-2.99-3.67-4.55,1.66-1.08,3.31-2.15,5.83-3.79Z"/>
<path class="c" d="M231.01,285.14c0,11.33,.06,22.66-.05,33.98-.02,2.28-.16,4.81-1.14,6.77-1.09,2.16-2.96,4.85-4.97,5.34-1.72,.42-4.67-1.47-6.11-3.16-3.79-4.47-5.69-9.66-3.96-15.73,.53-1.88,.47-3.95,.47-5.94,.04-20.16-.03-40.31,.09-60.47,.03-4.09-1.05-6.98-5.01-8.8-1.33-.61-1.99-2.67-2.96-4.06,1.47-.9,2.94-2.57,4.42-2.58,7.12-.04,13.88,1.53,19.52,6.23,2.41,2,3.36,4.19,1.36,7.36-1.15,1.82-1.56,4.36-1.59,6.59-.15,11.49-.07,22.99-.07,34.48Z"/>
</g></g>
</svg>