<?xml version="1.0" encoding="UTF-8"?><svg id="a" xmlns="http://www.w3.org/2000/svg" xmlns:xlink="http://www.w3.org/1999/xlink" viewBox="0 0 688.36 751.34"><defs><style>.o{letter-spacing:-.04em;}.p{letter-spacing:-.04em;}.q{letter-spacing:-.01em;}.r{letter-spacing:-.04em;}.s{fill:#ebebeb;}.t,.u{fill:#fff;}.v{fill:#ed1c24;}.w{fill:#be1e2d;}.x{fill:#231f20;}.y{fill:#414042;}.a`{letter-spacing:-.01em;}.aa{letter-spacing:-.01em;}.u{font-family:Roboto-Black, Roboto;font-size:61.39px;}.ab{letter-spacing:-.01em;}.ac{letter-spacing:-.01em;}.ad{letter-spacing:-.06em;}.ae{letter-spacing:-.03em;}</style></defs><g><path class="v" d="M661.15,57.64H200.36L124.36,0H58.07c-15.9,0-30.29,6.44-40.71,16.86C6.95,27.28,.51,41.67,.51,57.57s6.44,30.29,16.86,40.71c10.42,10.42,24.81,16.86,40.71,16.86H124.36l76,29.53h460.79l27.21-43.01-27.21-44.01Z"/><polygon class="t" points="124.36 0 124.36 115.13 200.36 144.66 200.36 57.64 124.36 0"/><image transform="translate(200.36 57.39)" xlink:href="skillChart-011.png"/></g><g><path class="x" d="M622.22,156.59H200.36l-76-28.64H58.07c-15.9,0-30.29,6.44-40.71,16.86C6.95,155.23,.51,169.62,.51,185.52s6.44,30.29,16.86,40.71c10.42,10.42,24.81,16.86,40.71,16.86H124.36l76,.53h421.87l27.21-44.68-27.21-42.34Z"/><polygon class="t" points="124.36 127.95 124.36 243.08 200.36 243.61 200.36 156.59 124.36 127.95"/><image transform="translate(200.36 156.39)" xlink:href="skillChart-012.png"/></g><g><path class="x" d="M558.23,439.53H200.36l-76,57.64H58.07c-15.9,0-30.29-6.44-40.71-16.86-10.42-10.42-16.86-24.81-16.86-40.71s6.44-30.29,16.86-40.7c10.42-10.42,24.81-16.86,40.71-16.86H124.36l76-29.53h357.87l27.21,43.01-27.21,44.01Z"/><polygon class="t" points="124.36 497.17 124.36 382.03 200.36 352.51 200.36 439.53 124.36 497.17"/><image transform="translate(200.36 352.39)" xlink:href="skillChart-013.png"/></g><g><path class="v" d="M589.43,340.58H200.36l-76,28.64H58.07c-15.9,0-30.29-6.44-40.71-16.86-10.42-10.42-16.86-24.81-16.86-40.71s6.44-30.29,16.86-40.71c10.42-10.42,24.81-16.86,40.71-16.86H124.36l76-.53h389.08l27.21,44.68-27.21,42.34Z"/><polygon class="t" points="124.36 369.22 124.36 254.08 200.36 253.56 200.36 340.58 124.36 369.22"/><image transform="translate(200.36 253.39)" xlink:href="skillChart-014.png"/></g><text class="u" transform="translate(508.98 221.9) scale(.82 1)"><tspan x="0" y="0">CSS</tspan></text><text class="u" transform="translate(515.13 121.39) scale(.82 1)"><tspan class="ab" x="0" y="0">H</tspan><tspan x="42.27" y="0">TML</tspan></text><text class="u" transform="translate(246.85 419.69) scale(.82 1)"><tspan x="0" y="0">J</tspan><tspan class="o" x="34.5" y="0">A</tspan><tspan class="p" x="74.01" y="0">V</tspan><tspan x="112.32" y="0">ASCRIP</tspan><tspan class="ae" x="331.38" y="0">T</tspan></text><text class="u" transform="translate(418.83 321.12) scale(.82 1)"><tspan x="0" y="0">REA</tspan><tspan class="ac" x="116.21" y="0">C</tspan><tspan class="ae" x="155.63" y="0">T</tspan></text><g><g><path d="M45.27,12.59h4v4.01h3.66v-4.01h4v12.14h-4v-4.07h-3.66v4.07h-4V12.59h0Z"/><path d="M62.18,16.62h-3.52v-4.03h11.04v4.03h-3.52v8.12h-4v-8.12h0Z"/><path d="M71.45,12.59h4.17l2.56,4.27,2.56-4.27h4.17v12.14h-3.98v-6.02l-2.75,4.32h-.07l-2.75-4.32v6.02h-3.91V12.59Z"/><path d="M86.9,12.59h4v8.13h5.62v4.01h-9.62V12.59Z"/></g><g id="b"><g><polygon class="x" points="45.05 95.39 39.32 30.06 102.32 30.06 96.57 95.39 70.8 102.65 45.05 95.39"/><polygon class="y" points="70.82 35.4 70.82 97.1 91.66 91.23 96.57 35.4 70.82 35.4"/><polygon class="t" points="51.05 43.41 53.18 67.64 80.53 67.64 79.61 78.03 70.81 80.45 62.02 78.04 61.43 71.36 53.51 71.36 54.64 84.23 70.8 88.79 86.99 84.23 89.16 59.63 60.4 59.63 59.68 51.42 89.85 51.42 89.87 51.42 90.58 43.41 51.05 43.41"/><g><polygon class="s" points="70.82 43.41 51.05 43.41 53.18 67.64 70.82 67.64 70.82 59.63 60.4 59.63 59.68 51.42 70.82 51.42 70.82 43.41"/><polygon class="s" points="70.82 80.45 70.81 80.45 62.02 78.04 61.43 71.36 53.51 71.36 54.64 84.23 70.8 88.79 70.82 88.78 70.82 80.45"/></g></g></g></g><g><polygon class="v" points="106.9 411.38 73.06 411.38 39.22 411.38 45.56 478.29 73.06 485.88 100.55 478.29 106.9 411.38"/><polygon class="w" points="73.06 416.83 73.06 480.21 95.33 474.07 100.75 416.83 73.06 416.83"/><polygon class="t" points="90.78 425.04 56.53 425.04 54.15 450.1 54.2 449.94 83.29 449.94 82.34 460.54 73.06 463.14 63.64 460.5 63.07 454.08 54.52 454.08 55.74 466.9 73.06 471.68 90.38 466.9 92.76 441.75 61.89 441.75 62.29 433.36 83.71 433.36 84.03 438.16 92.66 438.16 90.78 425.04"/><path class="s" d="M73.06,425.04h-16.53l-2.38,25.05,.05-.16h18.86v-8.19h-9.98l.39-8.39h9.58v-8.32Zm-9.99,29.04h-8.55l1.22,12.82,17.32,4.77v-8.53l-9.42-2.64-.57-6.41Z"/><polygon class="v" points="66.48 401.51 60.46 401.51 60.46 405.72 66.48 405.72 69.7 405.72 70.79 405.72 70.79 393.22 66.48 393.22 66.48 401.51"/><path class="v" d="M85.67,393.29h-10.5v4.37c1.4,1.37,2.14,2.02,4.17,3.99-1.19,0-4.17,0-4.17,0v3.99h10.5v-3.99l-4.19-4h4.19v-4.37Z"/></g><g><path class="v" d="M72.74,230.24l-25.73-7.14-5.73-64.31h63l-5.74,64.3-25.8,7.15h0Z"/><path class="w" d="M93.63,219l4.9-54.94h-25.75v60.72l20.85-5.78h0Z"/><path class="s" d="M54.42,187.9l.71,7.89h17.65v-7.89h-18.36Zm-1.42-15.96l.72,7.89h19.06v-7.89h-19.78Zm19.78,36.45h-.03l-8.78-2.36-.56-6.29h-7.92l1.1,12.38,16.16,4.48h.04v-8.22Z"/><path class="v" d="M56.11,141.32h9.55v3.99h-5.56v3.99h5.56v3.99h-9.55v-11.98Zm11.46,0h9.55v3.47h-5.56v.69h5.56v7.99h-9.55v-3.65h5.56v-.69h-5.56v-7.82h0Zm11.46,0h9.55v3.47h-5.56v.69h5.56v7.99h-9.55v-3.65h5.56v-.69h-5.56v-7.82h0Z"/><path class="t" d="M91.08,187.9l1.42-15.96h-19.76v7.89h11.11l-.72,8.08h-10.4v7.89h9.71l-.92,10.23-8.8,2.37v8.21l16.17-4.48,.12-1.33,1.85-20.76,.19-2.12h0Z"/></g><g><path class="x" d="M93.71,300.27c-.74-.25-1.5-.49-2.29-.72,.13-.53,.25-1.05,.35-1.56,1.73-8.4,.6-15.17-3.27-17.4-3.71-2.14-9.77,.09-15.89,5.42-.59,.51-1.18,1.05-1.77,1.62-.39-.38-.79-.74-1.18-1.09-6.42-5.7-12.85-8.1-16.71-5.86-3.7,2.14-4.8,8.51-3.24,16.47,.15,.77,.33,1.55,.53,2.35-.91,.26-1.79,.53-2.63,.83-7.52,2.62-12.33,6.73-12.33,11s5.16,8.82,12.99,11.5c.62,.21,1.26,.41,1.92,.6-.21,.86-.4,1.71-.56,2.54-1.49,7.83-.33,14.04,3.37,16.17,3.81,2.2,10.22-.06,16.45-5.51,.49-.43,.99-.89,1.48-1.37,.64,.62,1.28,1.2,1.92,1.75,6.04,5.2,12,7.29,15.69,5.16,3.81-2.21,5.05-8.88,3.44-17-.12-.62-.27-1.25-.43-1.9,.45-.13,.89-.27,1.32-.41,8.14-2.7,13.44-7.06,13.44-11.52s-4.96-8.42-12.63-11.06h0Z"/><path class="t" d="M91.94,319.97c-.39,.13-.79,.25-1.19,.37-.9-2.85-2.11-5.87-3.6-9,1.42-3.05,2.58-6.04,3.46-8.87,.73,.21,1.43,.43,2.11,.67,6.57,2.26,10.58,5.61,10.58,8.19,0,2.75-4.33,6.31-11.36,8.64h0Zm-2.92,5.78c.71,3.59,.81,6.84,.34,9.38-.42,2.28-1.27,3.8-2.33,4.41-2.24,1.3-7.03-.39-12.19-4.83-.59-.51-1.19-1.05-1.79-1.63,2-2.19,4-4.73,5.96-7.56,3.43-.3,6.68-.8,9.62-1.48,.14,.58,.27,1.16,.38,1.72h0Zm-29.51,13.56c-2.19,.77-3.93,.79-4.98,.19-2.24-1.29-3.17-6.28-1.9-12.97,.15-.77,.32-1.55,.52-2.36,2.91,.64,6.13,1.11,9.57,1.39,1.97,2.77,4.02,5.31,6.1,7.53-.45,.44-.9,.85-1.35,1.25-2.76,2.41-5.52,4.12-7.95,4.98h0Zm-10.25-19.36c-3.46-1.18-6.33-2.72-8.29-4.4-1.76-1.51-2.65-3.01-2.65-4.22,0-2.59,3.86-5.89,10.29-8.13,.78-.27,1.6-.53,2.45-.77,.89,2.89,2.06,5.92,3.46,8.97-1.43,3.1-2.61,6.17-3.51,9.1-.6-.17-1.19-.36-1.75-.55h0Zm3.44-23.38c-1.34-6.82-.45-11.97,1.78-13.26,2.38-1.38,7.63,.59,13.17,5.5,.35,.31,.71,.64,1.07,.98-2.06,2.22-4.1,4.74-6.05,7.49-3.34,.31-6.54,.81-9.48,1.47-.18-.74-.35-1.47-.49-2.19h0Zm30.65,7.57c-.7-1.21-1.42-2.4-2.16-3.55,2.27,.29,4.44,.67,6.48,1.13-.61,1.96-1.38,4.01-2.27,6.12-.64-1.22-1.33-2.46-2.04-3.7h0Zm-12.5-12.17c1.4,1.52,2.8,3.21,4.18,5.05-1.39-.07-2.8-.1-4.21-.1s-2.8,.03-4.18,.1c1.38-1.82,2.79-3.51,4.22-5.05h0Zm-12.58,12.19c-.7,1.22-1.37,2.44-2.01,3.67-.88-2.1-1.64-4.16-2.26-6.15,2.03-.45,4.19-.82,6.44-1.11-.75,1.16-1.47,2.36-2.18,3.58h0Zm2.24,18.14c-2.33-.26-4.52-.61-6.55-1.05,.63-2.03,1.4-4.13,2.3-6.27,.64,1.23,1.31,2.46,2.01,3.68h0c.72,1.24,1.47,2.46,2.23,3.65h0Zm10.42,8.61c-1.44-1.55-2.87-3.27-4.27-5.12,1.36,.05,2.75,.08,4.16,.08s2.88-.03,4.29-.1c-1.38,1.88-2.78,3.6-4.17,5.13h0Zm14.49-16.05c.95,2.16,1.75,4.26,2.39,6.25-2.06,.47-4.28,.85-6.63,1.13,.74-1.17,1.47-2.37,2.18-3.62,.72-1.26,1.41-2.51,2.06-3.76h0Zm-4.69,2.25c-1.11,1.93-2.25,3.76-3.41,5.5-2.11,.15-4.29,.23-6.51,.23s-4.36-.07-6.43-.2c-1.2-1.76-2.37-3.6-3.47-5.51h0c-1.1-1.9-2.11-3.82-3.03-5.72,.92-1.91,1.93-3.83,3.02-5.73h0c1.1-1.9,2.25-3.74,3.44-5.48,2.11-.16,4.28-.24,6.47-.24h0c2.2,0,4.37,.08,6.48,.25,1.17,1.73,2.32,3.56,3.42,5.47,1.11,1.92,2.14,3.83,3.06,5.7-.92,1.9-1.94,3.83-3.05,5.75h0Zm6.26-33.89c2.38,1.37,3.3,6.91,1.81,14.16-.1,.46-.2,.93-.32,1.41-2.95-.68-6.15-1.19-9.5-1.5-1.95-2.78-3.98-5.31-6.01-7.5,.55-.53,1.09-1.03,1.63-1.5,5.25-4.56,10.15-6.37,12.38-5.08h0Z"/><path class="x" d="M70.82,304.99c3.5,0,6.34,2.84,6.34,6.34s-2.84,6.34-6.34,6.34-6.34-2.84-6.34-6.34,2.84-6.34,6.34-6.34"/></g><g><path class="v" d="M660.65,450.96H199.85l-76,57.36H57.57c-15.9,0-30.29,6.44-40.71,16.86-10.42,10.42-16.86,24.81-16.86,40.71s6.44,30.29,16.86,40.71c10.42,10.42,24.81,16.86,40.71,16.86H123.85l76-85.47h460.79l27.21-43.01-27.21-44.01Z"/><polygon class="t" points="124.78 507.25 124.78 622.39 199.85 537.98 199.85 450.96 124.78 507.25"/><image transform="translate(199.36 450.39)" xlink:href="skillChart-015.png"/></g><g><path class="x" d="M622.65,548.84H200.78l-76,87.36H58.5c-15.9,0-30.29,6.44-40.71,16.86-10.42,10.42-16.86,20.81-16.86,36.71s6.44,34.29,16.86,44.71c10.42,10.42,24.81,16.86,40.71,16.86H124.78l76-115.47h421.87l27.21-44.68-27.21-42.34Z"/><polygon class="t" points="124.78 636.2 124.78 751.34 200.78 635.86 200.78 548.84 124.78 636.2"/><image transform="translate(200.36 548.39)" xlink:href="skillChart-016.png"/></g><text class="u" transform="translate(325.39 614.15) scale(.82 1)"><tspan x="0" y="0">PH</tspan><tspan class="r" x="83.09" y="0">O</tspan><tspan class="a`" x="122.93" y="0">T</tspan><tspan x="160.79" y="0">OSHOP</tspan></text><text class="u" transform="translate(318.71 514.71) scale(.82 1)"><tspan x="0" y="0">IL</tspan><tspan class="q" x="51.8" y="0">L</tspan><tspan x="84.35" y="0">USTR</tspan><tspan class="ad" x="242.32" y="0">A</tspan><tspan class="aa" x="280.54" y="0">T</tspan><tspan x="318.4" y="0">OR</tspan></text><g id="c"><g id="d"><g id="e"><g id="f"><path class="x" d="M48.13,529.35h48.44c7.34,0,13.28,5.94,13.28,13.28v46.56c0,7.34-5.94,13.28-13.28,13.28H48.13c-7.34,0-13.28-5.94-13.28-13.28v-46.56c0-7.34,5.94-13.28,13.28-13.28Z"/></g></g></g><g id="g"><g id="h"><path class="v" d="M51.72,580.63v-32.16c0-.22,.09-.34,.31-.34,.53,0,1.03,0,1.75-.03,.75-.03,1.53-.03,2.37-.06,.84-.03,1.75-.03,2.72-.06,.97-.03,1.91-.03,2.84-.03,2.56,0,4.69,.31,6.44,.97,1.56,.53,3,1.41,4.19,2.56,1,1,1.78,2.22,2.28,3.56,.47,1.31,.72,2.66,.72,4.06,0,2.69-.62,4.91-1.87,6.66s-3,3.06-5.03,3.81c-2.13,.78-4.47,1.06-7.03,1.06-.75,0-1.25,0-1.56-.03s-.75-.03-1.34-.03v10.03c.03,.22-.13,.41-.34,.44h-6.06c-.25,0-.38-.12-.38-.41Zm6.81-26.47v10.5c.44,.03,.84,.06,1.22,.06h1.66c1.22,0,2.44-.19,3.59-.56,1-.28,1.88-.88,2.56-1.66,.66-.78,.97-1.84,.97-3.22,.03-.97-.22-1.94-.72-2.78-.53-.81-1.28-1.44-2.19-1.78-1.16-.47-2.41-.66-3.69-.63-.81,0-1.53,0-2.13,.03-.62-.03-1.06,0-1.28,.03h0Z"/><path class="v" d="M94.84,562.76c-.94-.5-1.94-.84-3-1.06-1.16-.25-2.31-.41-3.5-.41-.62-.03-1.28,.06-1.87,.22-.41,.09-.75,.31-.97,.63-.16,.25-.25,.56-.25,.84s.12,.56,.31,.81c.28,.34,.66,.62,1.06,.84,.72,.37,1.47,.72,2.22,1.03,1.69,.56,3.31,1.34,4.81,2.28,1.03,.66,1.87,1.53,2.47,2.59,.5,1,.75,2.09,.72,3.22,.03,1.47-.41,2.94-1.22,4.16-.88,1.25-2.09,2.22-3.5,2.78-1.53,.66-3.41,1-5.66,1-1.44,0-2.84-.12-4.25-.41-1.09-.19-2.19-.53-3.19-1-.22-.12-.37-.34-.34-.59v-5.44c0-.09,.03-.22,.12-.28,.09-.06,.19-.03,.28,.03,1.22,.72,2.5,1.22,3.87,1.53,1.19,.31,2.44,.47,3.69,.47s2.03-.16,2.59-.44c.5-.22,.84-.75,.84-1.31,0-.44-.25-.84-.75-1.25-.5-.41-1.53-.88-3.06-1.47-1.59-.56-3.06-1.31-4.44-2.25-.97-.69-1.78-1.59-2.38-2.66-.5-1-.75-2.09-.72-3.19,0-1.34,.37-2.63,1.06-3.78,.78-1.25,1.94-2.25,3.28-2.87,1.47-.75,3.31-1.09,5.53-1.09,1.28,0,2.59,.09,3.87,.28,.94,.13,1.84,.37,2.69,.72,.12,.03,.25,.16,.31,.28,.03,.13,.06,.25,.06,.37v5.09c0,.13-.06,.25-.16,.31-.28,.06-.44,.06-.56,0Z"/></g></g></g><g id="i"><g id="j"><g id="k"><g id="l"><path class="v" d="M49.24,656.57h48.44c7.34,0,13.28,5.94,13.28,13.28v46.56c0,7.34-5.94,13.28-13.28,13.28H49.24c-7.34,0-13.28-5.94-13.28-13.28v-46.56c0-7.34,5.94-13.28,13.28-13.28Z"/></g></g></g><g id="m"><g id="n"><path class="x" d="M72.3,700.44h-11.63l-2.37,7.34c-.06,.28-.31,.47-.59,.44h-5.87c-.34,0-.44-.19-.34-.56l10.06-28.97c.09-.31,.19-.66,.31-1.03,.13-.66,.19-1.34,.19-2.03-.03-.16,.09-.31,.25-.34h8.09c.25,0,.37,.09,.41,.25l11.41,32.19c.09,.34,0,.5-.31,.5h-6.53c-.22,.03-.44-.12-.5-.34l-2.56-7.44Zm-9.81-6.34h7.94c-.19-.66-.44-1.44-.72-2.25-.28-.84-.56-1.75-.84-2.69-.31-.97-.59-1.91-.91-2.87s-.59-1.88-.84-2.78c-.25-.88-.47-1.69-.69-2.44h-.06c-.28,1.34-.62,2.69-1.06,4.03-.47,1.5-.94,3.06-1.44,4.63-.44,1.59-.91,3.06-1.38,4.37h0Z"/><path class="x" d="M89.02,680.63c-1.03,.03-2.03-.37-2.78-1.09-.72-.78-1.09-1.81-1.06-2.87-.03-1.06,.37-2.06,1.13-2.78,.75-.72,1.75-1.09,2.78-1.09,1.22,0,2.16,.38,2.84,1.09,.69,.75,1.06,1.75,1.03,2.78,.03,1.06-.34,2.09-1.09,2.87-.72,.75-1.78,1.16-2.84,1.09Zm-3.5,27.13v-24.06c0-.31,.12-.44,.41-.44h6.19c.28,0,.41,.16,.41,.44v24.06c0,.34-.12,.5-.41,.5h-6.13c-.31,0-.47-.19-.47-.5Z"/></g></g></g></svg>